<?xml version="1.0" encoding="utf-8"?><svg xmlns="http://www.w3.org/2000/svg" xmlns:xlink="http://www.w3.org/1999/xlink"><symbol shape-rendering="geometricPrecision" text-rendering="geometricPrecision" image-rendering="optimizeQuality" fill-rule="evenodd" clip-rule="evenodd" viewBox="0 0 505 511.62" id="Advantage-delivery" xmlns="http://www.w3.org/2000/svg"><path d="M336.11 39.84l-115.38 68.94 135.38 18.4 111.32-69.44-131.32-17.9zm26.72 204.57c73.79 0 133.6 59.82 133.6 133.61 0 73.78-59.81 133.6-133.6 133.6-73.79 0-133.6-59.82-133.6-133.6 0-73.79 59.81-133.61 133.6-133.61zm-34.4 114.76l19.91 18.66 45.73-46.46c4.46-4.53 7.28-8.18 12.79-2.51l17.88 18.33c5.88 5.81 5.58 9.22.04 14.62l-66.23 65.01c-11.66 11.46-9.64 12.15-21.48.41l-38.75-38.52c-2.47-2.68-2.19-5.37.51-8.06l20.75-21.52c3.15-3.3 5.64-3.02 8.85.04zm-123.6-233.04l-.09 141.71-51.45-35.04-51.46 29.07 6.1-148.91-88.54-12.03v312.98l178.95 23.14c2.52 7.09 5.47 13.98 8.85 20.62L9.3 432.08c-5.17-.21-9.3-4.48-9.3-9.69V89.86c.27-4.05 1.89-6.89 5.72-8.81L182.48.85c1.58-.72 3.52-1.01 5.25-.77l308.18 42.04c5.09.59 8.58 4.77 8.58 9.99v.02L505 280.9c-5.72-8.46-15.57-20.29-19.93-27.77V69.56l-115.81 74.93v59.81a174.846 174.846 0 00-19.39.36v-58.82l-145.04-19.71zm-81.52-30.58l112.17-69.44-47.58-6.49L44.24 84.8l79.07 10.75z"/></symbol><symbol shape-rendering="geometricPrecision" text-rendering="geometricPrecision" image-rendering="optimizeQuality" fill-rule="evenodd" clip-rule="evenodd" viewBox="0 0 512 494.98" id="Advantage-employee" xmlns="http://www.w3.org/2000/svg"><path d="M178.04 311.17c32.3 61.92 130.11 59.41 155.92 0 37.65 33.88 119.56 20.26 153.82 65.49 18.16 23.98 19.55 62.31 24.22 92.13-1.48 15.76-10.43 24.85-28.03 26.19H28.03C10.43 493.64 1.48 484.55 0 468.79c4.68-29.82 6.06-68.16 24.22-92.13 34.23-45.22 116.18-31.62 153.82-65.49zm39.52-285.19c-1.05.04-2.07-.16-3.01-.47-26.87 12-48.62 38.41-54.52 82.37-.63 4.86-5.25 8.25-10.29 7.67-5.05-.63-8.61-5.05-7.98-9.86 6.88-51.24 33.17-82.22 65.67-96.46C223.82 2.04 241.7-.82 259.38.2c17.64.98 35.12 5.79 50.85 13.92 33.28 17.25 58.63 49.48 60.47 92.4.19 4.88-3.76 8.99-8.84 9.19-5.09.19-9.35-3.6-9.55-8.49-1.52-35.95-22.84-62.97-50.81-77.49-1.21-.63-2.38-1.21-3.63-1.8-1.02.36-2.11.55-3.29.51-16.03-.38-10.6 69.41-10.6 85.62 0 4.97-4.11 9-9.15 9-5.05 0-9.16-4.03-9.16-9 0-25.41-4.33-75.58 8.88-93.99-5.35-1.13-10.79-1.88-16.23-2.19-6.84-.39-13.69-.08-20.42.9 12.48 19.35 8.26 69.36 8.26 95.28 0 4.93-3.99 8.92-8.92 8.92s-8.92-3.99-8.92-8.92c0-16.62 5.55-88.54-10.76-88.08zm144.36 120.24c8.4 20.42 10.06 37.02 2.77 58.5l-.05.11c-2.13 6.04-5.03 11.5-8.42 15.47-2.88 3.38-6.17 5.74-9.73 6.58l-1.96 7.36c-5.94 21.9-17.66 41.09-33.46 54.42l-.16.11c-14.91 12.52-33.43 19.83-54.15 19.28-21.81-.35-40.05-8.24-54.66-21.1-16.23-14.28-27.98-34.69-35.17-57.67-.36-1.5-.99-3.19-1.48-4.69-5.8-.71-10.36-5.01-13.82-10.7-8.77-14.45-10.68-31.66-6.45-47.81 1.59-6.09 3.8-12.05 5.98-17.31-10.37-5.53-20.19-13.2-25.32-24.03l16.74-7.31c13.07 27.6 81.45 32.5 106.98 32.58 37.47.12 75.65-5.98 100.13-17.6 9.67-4.58 16.9-9.9 20.62-15.84l15.8 9.07c-5.02 8.05-13.41 14.92-24.19 20.58zm-194.35 9.64c-14.48 14.52-3.53 57.28 4.4 55.69 7.01-2.03 8.37 8.46 9.76 12.95 7.58 24.06 21.25 41.64 37.39 52.34 12.04 7.99 25.48 12.17 38.78 12.36 13.29.19 26.5-3.57 38.09-11.45 14.15-9.61 25.95-25.38 32.72-47.57 1.15-4.51 2.65-17.01 9.59-15.67 11.17 2.19 14.54-29.81 13.49-37.95-.86-6.73-3.08-13.31-6.07-22.03a2.39 2.39 0 01-.1-1.09l.02-.18c-47.54 17.03-127.75 20.22-178.07 2.6z"/></symbol><symbol shape-rendering="geometricPrecision" text-rendering="geometricPrecision" image-rendering="optimizeQuality" fill-rule="evenodd" clip-rule="evenodd" viewBox="0 0 452 512.11" id="Advantage-money" xmlns="http://www.w3.org/2000/svg"><path d="M336.47 255.21h64.36v-12.46c-3.68-13.63-9.54-22.87-17.13-28.49-7.59-5.61-17.43-8.01-28.98-7.93l-263.96.06c-6.5 0-11.76-5.27-11.76-11.76 0-6.5 5.26-11.76 11.76-11.76l263.65.03c16.59-.16 31.23 3.62 43.25 12.53 1.08.8 2.14 1.64 3.17 2.52v-7.07c0-10.98-4.53-21.02-11.82-28.31-7.23-7.29-17.25-11.8-28.29-11.8h-8.49l-1.09-.05-4.15 15.56h-28.52l16.92-63.47c-14.22-3.8-22.7-18.5-18.89-32.72l-94.11-25.21c-3.81 14.21-18.5 22.71-32.7 18.9l-27.63 102.5h-29.41L177.4 0l199.7 53.51-19.69 73.73h3.31c17.45 0 33.36 7.19 44.9 18.72 11.56 11.51 18.73 27.45 18.73 44.92v64.99c6.79 1.35 12.86 4.71 17.57 9.42 6.21 6.21 10.08 14.81 10.08 24.28v77.35c0 9.87-4.04 18.85-10.52 25.32-4.63 4.63-10.53 8.02-17.13 9.57v46.66c0 17.46-7.18 33.39-18.72 44.93l-.74.68c-11.5 11.13-27.11 18.03-44.17 18.03H63.63c-17.47 0-33.4-7.17-44.94-18.7C7.17 481.89 0 465.98 0 448.47V190.88c0-17.52 7.16-33.43 18.68-44.95 11.52-11.52 27.44-18.69 44.95-18.69h37.12l.16.01L130.46 17.5l28.19 7.55-38.73 141.23H90.4l4.18-15.51H63.63c-11.01 0-21.04 4.52-28.32 11.79-7.27 7.27-11.79 17.31-11.79 28.32v257.59c0 11.01 4.53 21.03 11.81 28.3 7.28 7.29 17.32 11.82 28.3 11.82h297.09c10.73 0 20.54-4.3 27.74-11.25l.54-.58c7.29-7.28 11.83-17.32 11.83-28.29v-45.71h-64.36c-19.88 0-37.96-8.14-51.02-21.2l-1.23-1.35c-12.36-13-19.98-30.52-19.98-49.68v-3.1c0-19.79 8.13-37.83 21.21-50.94l.13-.13c13.1-13.05 31.12-21.15 50.89-21.15zm-95.71-93.06c17.19 4.6 34.89-5.6 39.49-22.8 4.61-17.19-5.61-34.89-22.8-39.49-17.2-4.6-34.9 5.6-39.5 22.8-4.6 17.19 5.62 34.88 22.81 39.49zM362.3 309.07l.06.05c10.93 10.96 10.9 28.79-.02 39.74l-.05.06c-10.96 10.93-28.79 10.9-39.75-.02l-.05-.05c-10.93-10.96-10.9-28.79.02-39.75l.05-.05c10.96-10.93 28.79-10.91 39.74.02z"/></symbol><symbol shape-rendering="geometricPrecision" text-rendering="geometricPrecision" image-rendering="optimizeQuality" fill-rule="evenodd" clip-rule="evenodd" viewBox="0 0 512 387.72" id="Advantage-service" xmlns="http://www.w3.org/2000/svg"><path fill-rule="nonzero" d="M150.22 108.7c1.83-4.93 5.06-8.44 9.68-10.55 4.62-2.12 9.42-2.3 14.31-.46l26.66 9.86c6.82-10.84 15.86-20.88 25.22-29.62L213.23 49.9c-2.17-4.72-2.37-9.47-.6-14.24 1.79-4.83 5.02-8.25 9.74-10.41L257.56 9.1c4.5-2.07 9.17-2.28 14.1-.54 4.85 1.74 8.36 4.97 10.52 9.7l11.78 25.66c12.65-2.55 25.71-3.44 38.58-2.52l11.09-29.25c1.6-4.83 4.68-8.31 9.36-10.46 4.62-2.12 9.37-2.23 14.33-.42l35.97 13.37c4.94 1.83 8.45 5.06 10.57 9.68 2.11 4.61 2.29 9.42.45 14.31l-9.86 26.66c10.83 6.82 20.87 15.86 29.62 25.22l28.02-12.86c4.73-2.17 9.48-2.37 14.25-.6 4.83 1.79 8.25 5.02 10.41 9.74l16.15 35.19c2.07 4.51 2.27 9.16.53 14.1-1.73 4.84-4.96 8.36-9.69 10.52l-25.66 11.78c2.59 12.84 3.36 25.83 2.67 38.91l29.1 10.76c4.83 1.61 8.31 4.68 10.46 9.37 2.12 4.61 2.23 9.36.42 14.33l-13.22 36.3c-1.92 4.74-5.22 8.11-9.83 10.22-4.62 2.12-9.35 2.45-14.17.79l-26.81-10.19c-6.96 10.9-15.76 20.79-25.21 29.62l12.86 28.03c2.17 4.72 2.37 9.46.6 14.24-1.79 4.83-5.02 8.25-9.74 10.41l-35.19 16.15c-4.51 2.07-9.17 2.27-14.1.53-4.85-1.74-8.36-4.96-10.53-9.69l-11.77-25.66c-12.85 2.6-25.83 3.36-38.91 2.67l-10.76 29.1c-1.61 4.83-4.75 8.34-9.48 10.51-4.79 2.2-9.5 2.29-14.22.37l-36.3-13.23c-4.75-1.91-8.11-5.21-10.23-9.82-2.12-4.62-2.44-9.35-.78-14.17l10.18-26.8c-3.54-2.23-7-4.7-10.36-7.34l26.49-13.34c6.17-2.96 11.28-3.39 16.08-2.81 3.25 1.6 6.58 3.03 9.99 4.3 13.15 4.88 27.11 7.07 41.81 6.79 44.52-1.39 84.89-30.26 100.39-72.05 10.24-27.62 8.85-57.83-3.4-84.52-18.79-40.93-58.49-65.37-103.67-64.48-29.42.94-58.38 14.24-78.28 35.93-12.77 14.29-21.5 30.83-25.84 48.31-3.74 6.68-7.38 12.01-10.86 13.67l.03.06-28.85 14.16c-.02-3.47.08-6.93.32-10.35l-29.24-11.09c-4.83-1.61-8.31-4.68-10.46-9.37-2.12-4.62-2.23-9.36-.42-14.33l13.37-35.97zM76.47 387.6c-21.09 1.29-42.99-7.8-60.19-23.99 86.39.08 69.92-104.82-16.28-69.23 11.8-42.95 50.13-59.96 91.4-51.04 21.83 4.7 34.79 8.63 55.41-.7l73.31-35.99c39.09-18.59 31.6-88.19 97.31-92.18 21.09-1.3 42.96 7.81 60.2 23.99-86.4-.09-69.93 104.81 16.28 69.22-11.8 42.95-50.14 59.96-91.4 51.04-18.11-3.94-31.98-11.92-58.34.87l-69.29 34.89c-13.73 7.24-18.37 11.98-26 25.4-18.67 32.83-28.28 65.03-72.41 67.72z"/></symbol><symbol id="Logo" viewBox="0 0 1024 384" xml:space="preserve" xmlns="http://www.w3.org/2000/svg"><style>.est0{fill:none;stroke:#000;stroke-width:2;stroke-linecap:round;stroke-linejoin:round;stroke-miterlimit:10}</style><path d="M385.44 370.54c-2.41.2-4.02.44-5.62.46-14.17.17-28.33.23-42.5.5-3.04.06-4.62-.99-5.87-3.86-21.04-48.39-42.56-96.56-63.18-145.13-14.69-34.59-28.13-69.74-42.28-104.58-5.94-14.62-12.24-29.08-18.42-43.6-.39-.91-1.1-1.68-2.19-3.3-1.25 2.54-2.18 4.4-3.06 6.27-16.12 34.35-27.92 70.5-42.42 105.51-17.59 42.46-36.46 84.37-54.8 126.51-8.46 19.44-17.08 38.81-25.42 58.3-1.46 3.41-3.25 4.58-6.9 4.35-13.84-.9-27.71-1.47-41.56-2.2-1.75-.09-3.5-.43-5.76-.72.53-1.7.78-2.86 1.24-3.92 22.25-51.22 44.5-102.45 66.8-153.65 22.55-51.78 45.17-103.53 67.75-155.29C167 43 172.82 29.84 178.5 16.62c1.18-2.75 2.8-4.03 5.88-4.04 13.57-.06 27.13-.26 40.7-.57 3.34-.08 5.2 1.05 6.6 4.28 32.83 75.48 65.81 150.88 98.66 226.34 17.79 40.85 35.39 81.79 53.07 122.69.59 1.41 1.11 2.85 2.03 5.22z"/><path d="M307.27 368.12c-7.01-4.28-14.05-8.52-21.03-12.86-26-16.17-52-32.34-77.93-48.63-2.95-1.85-5.22-1.52-7.97.22-30.26 19.19-60.56 38.31-90.85 57.45-1.34.85-2.76 1.59-4.53 2 37.33-78.37 66.06-160.28 100.82-241.07 35.23 81.18 64.81 163.27 102.78 241.65-.43.42-.86.83-1.29 1.24z"/><path class="est0" d="M304.15 362.94c1.07 1.56 2.14 3.1 3.2 4.66M109.27 362c-1.22 1.24-2.44 2.48-3.66 3.73"/><path d="M432.44 372V256.4h-44.8V231h120.8v25.4h-44.8V372h-31.2zm107 3.6l-15.4-22.4c5.6-3.2 10.5-6.9 14.7-11.1 4.2-4.2 7.63-9.3 10.3-15.3 2.67-6 4.67-13.27 6-21.8 1.33-8.53 2-18.73 2-30.6V231h106v141h-31V256.2h-46.4V282c0 12.8-1.03 24.23-3.1 34.3-2.07 10.07-5.07 18.9-9 26.5-3.93 7.6-8.77 14.1-14.5 19.5s-12.27 9.83-19.6 13.3zm149.6-3.6l64.8-141h25.8l65.6 141h-31.6l-17-39.2 12.2 8.6h-83.8l12.4-8.6-17 39.2h-31.4zm77.6-108.2l-25.8 61.2-5.4-7.6h63l-4.6 7.6-26.4-61.2h-.8zm168.6 110.4c-15.07 0-28-3-38.8-9s-19.1-14.43-24.9-25.3c-5.8-10.87-8.7-23.7-8.7-38.5s2.9-27.6 8.7-38.4c5.8-10.8 14.1-19.2 24.9-25.2s23.73-9 38.8-9c9.73 0 18.6 1.37 26.6 4.1 8 2.73 14.8 6.7 20.4 11.9l-9.8 24.6c-6.13-4.8-11.97-8.2-17.5-10.2-5.53-2-11.77-3-18.7-3-13.2 0-23.3 3.9-30.3 11.7-7 7.8-10.5 18.97-10.5 33.5 0 14.53 3.5 25.73 10.5 33.6 7 7.87 17.1 11.8 30.3 11.8 6.93 0 13.17-1 18.7-3 5.53-2 11.37-5.4 17.5-10.2l9.8 24.6c-5.6 5.07-12.4 9-20.4 11.8s-16.87 4.2-26.6 4.2zm-545.4-185.4v-141h30.8v58.4h21.2l-5.4 3.4 39.6-61.8h34l-45.4 67.8-12.2-8.4c9.47 1.6 17.3 4.87 23.5 9.8 6.2 4.93 11.57 11.93 16.1 21l25.4 50.8h-33.6l-19-40c-2.93-6.4-6.54-10.9-10.8-13.5-4.27-2.6-9.73-3.9-16.4-3.9h-17v57.4h-30.8zm148.4-70.6c0-14.67 2.77-27.43 8.3-38.3 5.53-10.87 13.5-19.3 23.9-25.3 10.4-6 22.73-9 37-9s26.6 3 37 9c10.4 6 18.43 14.43 24.1 25.3 5.67 10.87 8.5 23.57 8.5 38.1 0 14.8-2.83 27.63-8.5 38.5-5.67 10.87-13.7 19.33-24.1 25.4-10.4 6.07-22.73 9.1-37 9.1s-26.57-3.03-36.9-9.1c-10.33-6.07-18.3-14.57-23.9-25.5-5.6-10.93-8.4-23.66-8.4-38.2zm32.6 0c0 14.53 3.03 25.9 9.1 34.1 6.07 8.2 15.23 12.3 27.5 12.3 12 0 21.13-4.1 27.4-12.3 6.27-8.2 9.4-19.57 9.4-34.1 0-14.67-3.1-26.03-9.3-34.1-6.2-8.07-15.37-12.1-27.5-12.1-12.27 0-21.43 4.03-27.5 12.1s-9.1 19.44-9.1 34.1zm144.6 70.6v-141h65.8c15.87 0 27.9 3.83 36.1 11.5 8.2 7.67 12.3 18.17 12.3 31.5 0 13.2-4.1 23.7-12.3 31.5s-20.23 11.7-36.1 11.7h-34.6v54.8h-31.2zm31.2-79h30.6c7.47 0 13.03-1.67 16.7-5s5.5-8 5.5-14-1.83-10.63-5.5-13.9c-3.67-3.27-9.23-4.9-16.7-4.9h-30.6v37.8zm117.8 79v-141h126.6v141h-31V73h-64.8v115.8h-30.8z"/></symbol><symbol id="Logo-short" viewBox="0 0 1024 1024" xml:space="preserve" xmlns="http://www.w3.org/2000/svg"><style>.fst0{fill:none;stroke:#000;stroke-width:2;stroke-linecap:round;stroke-linejoin:round;stroke-miterlimit:10}</style><path d="M860.15 770.81c-4.46.37-7.44.8-10.42.84-26.25.31-52.5.41-78.75.91-5.63.11-8.56-1.8-10.87-7.02-38.99-88.05-78.87-175.71-117.08-264.09-27.22-62.95-52.12-126.9-78.34-190.3-11-26.6-22.68-52.92-34.13-79.33-.72-1.66-2.04-3.05-4.06-6-2.31 4.63-4.04 8-5.67 11.41-29.87 62.5-51.73 128.29-78.61 191.99-32.6 77.26-67.56 153.53-101.55 230.2-15.68 35.37-31.64 70.62-47.11 106.09-2.7 6.2-6.02 8.34-12.79 7.91-25.65-1.64-51.34-2.67-77.01-4-3.25-.17-6.48-.78-10.68-1.31.98-3.09 1.44-5.2 2.3-7.14 41.23-93.21 82.45-186.42 123.77-279.59 41.79-94.22 83.69-188.39 125.54-282.58 10.66-24 21.43-47.95 31.97-72.01 2.19-5.01 5.18-7.33 10.89-7.35 25.14-.11 50.28-.47 75.42-1.04 6.18-.14 9.63 1.91 12.23 7.78 60.83 137.34 121.94 274.55 182.81 411.87 32.96 74.34 65.57 148.83 98.33 223.26 1.13 2.57 2.09 5.19 3.81 9.5z"/><path d="M715.29 766.41c-12.99-7.79-26.04-15.5-38.97-23.4-48.18-29.43-96.36-58.84-144.4-88.49-5.47-3.37-9.68-2.76-14.76.4-56.07 34.92-112.21 69.72-168.35 104.54-2.49 1.55-5.11 2.9-8.39 3.64 69.17-142.61 122.4-291.65 186.82-438.66 65.28 147.72 120.1 297.09 190.45 439.73-.8.75-1.6 1.5-2.4 2.24z"/><path class="fst0" d="M709.51 756.98c1.98 2.83 3.96 5.65 5.93 8.48M348.4 755.28l-6.78 6.78"/></symbol></svg>