<?xml version="1.0" encoding="utf-8"?>
<!-- Generator: Adobe Illustrator 26.0.1, SVG Export Plug-In . SVG Version: 6.00 Build 0)  -->
<svg version="1.1" id="Layer_1" xmlns="http://www.w3.org/2000/svg" xmlns:xlink="http://www.w3.org/1999/xlink" x="0px" y="0px"
	 viewBox="0 0 1024 1024" style="enable-background:new 0 0 1024 1024;" xml:space="preserve">
<style type="text/css">
	.st0{fill:none;stroke:#000000;stroke-width:2;stroke-linecap:round;stroke-linejoin:round;stroke-miterlimit:10;}
</style>
<g>
	<g>
		<!-- <path d="M526.33,980.77c-143.57-2.09-258.25-46.29-352.89-138.08C94.41,766.04,47.48,672.33,36.28,562.44
			C22.8,430.12,60.8,312.99,147.8,212.83C220.69,128.9,313.21,76.64,422.44,56.89c136.44-24.67,263.29,1.49,376.87,82.1
			c97.45,69.16,161.09,162.59,185.76,279.86c28.16,133.88,1.2,257.52-80.43,367.4c-77.11,103.79-181.3,165.3-308.63,186.97
			C569.11,977.8,541.65,979.16,526.33,980.77z M966.35,522c-0.33-81.92-17.9-152.31-55.46-216.92
			C844.82,191.38,746.84,119.45,619.06,89.8c-115.57-26.81-226.68-12.01-330.18,46.51C171.66,202.59,97.28,301.77,70.59,434.62
			c-17.68,87.98-7.03,173.41,30.18,254.9c44.92,98.38,117.4,170.67,214.88,216.77c107.95,51.05,220.16,58.62,334.37,24.49
			c89.21-26.66,163.57-76.77,221.91-149.71C934.12,703.29,965.14,614.28,966.35,522z"/> -->
		<path d="M860.15,770.81c-4.46,0.37-7.44,0.8-10.42,0.84c-26.25,0.31-52.5,0.41-78.75,0.91c-5.63,0.11-8.56-1.8-10.87-7.02
			c-38.99-88.05-78.87-175.71-117.08-264.09c-27.22-62.95-52.12-126.9-78.34-190.3c-11-26.6-22.68-52.92-34.13-79.33
			c-0.72-1.66-2.04-3.05-4.06-6c-2.31,4.63-4.04,8-5.67,11.41c-29.87,62.5-51.73,128.29-78.61,191.99
			c-32.6,77.26-67.56,153.53-101.55,230.2c-15.68,35.37-31.64,70.62-47.11,106.09c-2.7,6.2-6.02,8.34-12.79,7.91
			c-25.65-1.64-51.34-2.67-77.01-4c-3.25-0.17-6.48-0.78-10.68-1.31c0.98-3.09,1.44-5.2,2.3-7.14
			c41.23-93.21,82.45-186.42,123.77-279.59c41.79-94.22,83.69-188.39,125.54-282.58c10.66-24,21.43-47.95,31.97-72.01
			c2.19-5.01,5.18-7.33,10.89-7.35c25.14-0.11,50.28-0.47,75.42-1.04c6.18-0.14,9.63,1.91,12.23,7.78
			c60.83,137.34,121.94,274.55,182.81,411.87c32.96,74.34,65.57,148.83,98.33,223.26C857.47,763.88,858.43,766.5,860.15,770.81z"/>
		<path d="M715.29,766.41c-12.99-7.79-26.04-15.5-38.97-23.4c-48.18-29.43-96.36-58.84-144.4-88.49c-5.47-3.37-9.68-2.76-14.76,0.4
			c-56.07,34.92-112.21,69.72-168.35,104.54c-2.49,1.55-5.11,2.9-8.39,3.64c69.17-142.61,122.4-291.65,186.82-438.66
			c65.28,147.72,120.1,297.09,190.45,439.73C716.89,764.92,716.09,765.67,715.29,766.41z"/>
		<path class="st0" d="M709.51,756.98c1.98,2.83,3.96,5.65,5.93,8.48"/>
		<path class="st0" d="M348.4,755.28c-2.26,2.26-4.52,4.52-6.78,6.78"/>
	</g>
</g>
</svg>
