<?xml version="1.0" encoding="utf-8"?>
<!-- Generator: Adobe Illustrator 26.0.1, SVG Export Plug-In . SVG Version: 6.00 Build 0)  -->
<svg version="1.1" id="Layer_1" xmlns="http://www.w3.org/2000/svg" xmlns:xlink="http://www.w3.org/1999/xlink" x="0px" y="0px"
	 viewBox="0 0 254 314.7" style="enable-background:new 0 0 254 314.7;" xml:space="preserve">
<style type="text/css">
	.st0{opacity:0.67;fill:#CC0000;enable-background:new    ;}
	.st1{fill:#FFFFFF;}
</style>
<g id="Слой_1">
	<g>
		<path class="st0" d="M127,0C77.3,0,0,38.7,0,127c0,90.7,105.7,172.1,124.2,185.7c1.6,1.2,3.9,1.2,5.5,0
			C148.3,299.1,254,217.7,254,127C254,38.7,176.7,0,127,0z"/>
	</g>
</g>
<g>
	<g>
		<path class="st1" d="M200.8,178.9c-1,0.1-1.6,0.2-2.3,0.2c-5.8,0.1-11.6,0.1-17.4,0.2c-1.2,0-1.9-0.4-2.4-1.6
			c-8.6-19.5-17.5-38.9-25.9-58.5c-6-13.9-11.5-28.1-17.3-42.1c-2.4-5.9-5-11.7-7.6-17.6c-0.2-0.4-0.5-0.7-0.9-1.3
			c-0.5,1-0.9,1.8-1.3,2.5c-6.6,13.8-11.5,28.4-17.4,42.5c-7.2,17.1-15,34-22.5,51c-3.5,7.8-7,15.6-10.4,23.5
			c-0.6,1.4-1.3,1.8-2.8,1.8c-5.7-0.4-11.4-0.6-17-0.9c-0.7,0-1.4-0.2-2.4-0.3c0.2-0.7,0.3-1.2,0.5-1.6
			c9.1-20.6,18.3-41.3,27.4-61.9c9.3-20.9,18.5-41.7,27.8-62.6c2.4-5.3,4.7-10.6,7.1-15.9c0.5-1.1,1.1-1.6,2.4-1.6
			c5.6,0,11.1-0.1,16.7-0.2c1.4,0,2.1,0.4,2.7,1.7c13.5,30.4,27,60.8,40.5,91.2c7.3,16.5,14.5,32.9,21.8,49.4
			C200.2,177.4,200.5,178,200.8,178.9z"/>
		<path class="st1" d="M168.8,177.9c-2.9-1.7-5.8-3.4-8.6-5.2c-10.7-6.5-21.3-13-32-19.6c-1.2-0.7-2.1-0.6-3.3,0.1
			c-12.4,7.7-24.8,15.4-37.3,23.1c-0.6,0.3-1.1,0.6-1.9,0.8c15.3-31.6,27.1-64.6,41.4-97.1c14.5,32.7,26.6,65.8,42.2,97.3
			C169.1,177.6,168.9,177.8,168.8,177.9z"/>
		<path class="st1" d="M167.5,175.8c0.4,0.6,0.9,1.3,1.3,1.9"/>
		<path class="st1" d="M87.5,175.5c-0.5,0.5-1,1-1.5,1.5"/>
	</g>
</g>
</svg>
